<svg width="140" height="35" viewBox="0 0 140 35" fill="none" xmlns="http://www.w3.org/2000/svg">
<path fill-rule="evenodd" clip-rule="evenodd" d="M17.5553 5.07804C18.6407 3.72067 19.3834 1.87399 19.1772 0C17.6062 0.0695452 15.6416 1.08664 14.5102 2.41421C13.5093 3.58406 12.6151 5.50152 12.8461 7.30473C14.6108 7.43637 16.4227 6.4143 17.5553 5.07804ZM21.5293 16.8486C21.4936 12.8759 24.7573 10.928 24.9542 10.8104L24.9582 10.8081C23.0817 8.07221 20.1732 7.69841 19.1511 7.6686C17.6567 7.51133 16.1896 8.09359 14.9909 8.56936C14.2302 8.87127 13.5776 9.13029 13.0945 9.13029C12.5445 9.13029 11.873 8.86048 11.1205 8.55812C10.1366 8.16275 9.01412 7.71174 7.84382 7.73566C5.1862 7.77664 2.69996 9.31533 1.33638 11.7047C-1.47772 16.5766 0.621058 23.736 3.31718 27.674C4.66586 29.6039 6.2418 31.7561 8.30456 31.6803C9.24072 31.6423 9.90481 31.3627 10.5909 31.0738C11.3838 30.74 12.2062 30.3937 13.5118 30.3937C14.7433 30.3937 15.5307 30.7289 16.2862 31.0505C17.0109 31.359 17.7063 31.655 18.7363 31.6306C20.9022 31.5984 22.2658 29.6946 23.5672 27.7473C25.1258 25.5392 25.7517 23.3597 25.7766 23.248C25.7269 23.2318 21.5716 21.6459 21.5293 16.8486ZM39.8941 1.06957H36.9788V9.74329H39.8941C42.4727 9.74329 43.9875 8.13838 43.9875 5.40342C43.9875 2.67448 42.4667 1.06957 39.8941 1.06957ZM38.0607 2.04333V8.76953H39.8219C41.7875 8.76953 42.8815 7.56735 42.8815 5.41545C42.8815 3.24551 41.7935 2.04333 39.8219 2.04333H38.0607ZM45.2694 6.61763C45.2694 8.60723 46.4355 9.85149 48.1667 9.85149C49.8918 9.85149 51.0579 8.60723 51.0579 6.61763C51.0579 4.62201 49.8918 3.38376 48.1667 3.38376C46.4355 3.38376 45.2694 4.62201 45.2694 6.61763ZM48.1667 8.93182C49.2727 8.93182 49.994 8.0903 49.994 6.61763C49.994 5.14496 49.2727 4.30343 48.1667 4.30343C47.0607 4.30343 46.3333 5.14496 46.3333 6.61763C46.3333 8.0903 47.0607 8.93182 48.1667 8.93182ZM57.6655 9.74329H58.7294L60.4726 3.49196H59.4387L58.1884 8.57718H58.1644L56.7458 3.49196H55.736L54.3234 8.57718H54.2994L53.0491 3.49196H52.0092L53.7584 9.74329H54.8223L56.2289 4.90452H56.2529L57.6655 9.74329ZM61.7365 3.49196H62.7223V4.48977H62.7463C63.0949 3.81655 63.7621 3.38376 64.7299 3.38376C66.1004 3.38376 66.8938 4.26736 66.8938 5.68594V9.74329H65.8479V5.87227C65.8479 4.86244 65.3731 4.30944 64.4113 4.30944C63.4255 4.30944 62.7824 5.00671 62.7824 6.06462V9.74329H61.7365V3.49196ZM68.6867 1.06957V9.74329H69.7326V1.06957H68.6867ZM74.1462 9.85149C72.415 9.85149 71.2489 8.60723 71.2489 6.61763C71.2489 4.62201 72.415 3.38376 74.1462 3.38376C75.8713 3.38376 77.0374 4.62201 77.0374 6.61763C77.0374 8.60723 75.8713 9.85149 74.1462 9.85149ZM75.9735 6.61763C75.9735 8.0903 75.2522 8.93182 74.1462 8.93182C73.0402 8.93182 72.3128 8.0903 72.3128 6.61763C72.3128 5.14496 73.0402 4.30343 74.1462 4.30343C75.2522 4.30343 75.9735 5.14496 75.9735 6.61763ZM80.327 9.85149C79.0827 9.85149 78.2472 9.10013 78.2472 7.97609C78.2472 6.90615 79.0707 6.23293 80.5133 6.14878L82.3046 6.04659V5.52364C82.3046 4.76026 81.7997 4.30343 80.9341 4.30343C80.1286 4.30343 79.6237 4.68212 79.4915 5.29523H78.4816C78.5538 4.21327 79.4794 3.38376 80.9581 3.38376C82.4248 3.38376 83.3505 4.1772 83.3505 5.42146V9.74329H82.3587V8.66734H82.3346C81.9619 9.38264 81.1685 9.85149 80.327 9.85149ZM82.3046 7.36899C82.3046 8.27062 81.5472 8.96188 80.5614 8.96188C79.81 8.96188 79.3111 8.57117 79.3111 7.97609C79.3111 7.38702 79.792 7.01435 80.6335 6.96025L82.3046 6.85806V7.36899ZM87.4575 9.85149C85.8646 9.85149 84.7827 8.57718 84.7827 6.61763C84.7827 4.65807 85.8586 3.38376 87.4335 3.38376C88.3291 3.38376 89.0504 3.82256 89.4231 4.5078H89.4471V1.06957H90.493V9.74329H89.4952V8.68538H89.4772C89.0744 9.40668 88.3591 9.85149 87.4575 9.85149ZM85.8526 6.61763C85.8526 5.20507 86.5499 4.30343 87.6559 4.30343C88.7318 4.30343 89.4531 5.2231 89.4531 6.61763C89.4531 8.01817 88.7318 8.93182 87.6559 8.93182C86.5499 8.93182 85.8526 8.0362 85.8526 6.61763ZM97.8415 9.85149C96.1104 9.85149 94.9443 8.60723 94.9443 6.61763C94.9443 4.62201 96.1104 3.38376 97.8415 3.38376C99.5667 3.38376 100.733 4.62201 100.733 6.61763C100.733 8.60723 99.5667 9.85149 97.8415 9.85149ZM99.6688 6.61763C99.6688 8.0903 98.9475 8.93182 97.8415 8.93182C96.7355 8.93182 96.0082 8.0903 96.0082 6.61763C96.0082 5.14496 96.7355 4.30343 97.8415 4.30343C98.9475 4.30343 99.6688 5.14496 99.6688 6.61763ZM102.195 3.49196H103.181V4.48977H103.205C103.553 3.81655 104.221 3.38376 105.188 3.38376C106.559 3.38376 107.352 4.26736 107.352 5.68594V9.74329H106.306V5.87227C106.306 4.86244 105.832 4.30944 104.87 4.30944C103.884 4.30944 103.241 5.00671 103.241 6.06462V9.74329H102.195V3.49196ZM113.409 1.98322H112.363V3.49196H111.431V4.35152H112.363V8.12035C112.363 9.32253 112.807 9.79138 113.956 9.79138C114.202 9.79138 114.491 9.77335 114.617 9.74329V8.8657C114.545 8.87772 114.304 8.89576 114.184 8.89576C113.649 8.89576 113.409 8.63729 113.409 8.06625V4.35152H114.623V3.49196H113.409V1.98322ZM116.199 9.74329V1.06957H117.245V4.48977H117.269C117.618 3.7925 118.303 3.38376 119.253 3.38376C120.623 3.38376 121.453 4.30944 121.453 5.70397V9.74329H120.407V5.89632C120.407 4.90452 119.908 4.30944 118.928 4.30944C117.888 4.30944 117.245 5.01873 117.245 6.10069V9.74329H116.199ZM128.367 7.95205H127.339C127.165 8.54111 126.582 8.94384 125.788 8.94384C124.664 8.94384 123.961 8.15642 123.961 6.96025V6.90014H128.445V6.50342C128.445 4.60999 127.405 3.38376 125.716 3.38376C123.991 3.38376 122.885 4.70015 122.885 6.64167C122.885 8.60723 123.973 9.85149 125.764 9.85149C127.129 9.85149 128.187 9.04603 128.367 7.95205ZM125.698 4.29141C124.718 4.29141 124.033 5.04277 123.967 6.08266H127.363C127.339 5.03676 126.684 4.29141 125.698 4.29141ZM45.5926 26.5312L47.1074 31.0066H49.827L43.8484 14.4476H41.0713L35.0927 31.0066H37.7664L39.2812 26.5312H45.5926ZM42.4025 17.2017L39.9353 24.4656H44.9385L42.4713 17.2017H42.4025ZM63.2849 24.9705C63.2849 21.1492 61.2652 18.7394 58.2013 18.7394C56.457 18.7394 55.0685 19.623 54.3571 21.0115H54.3111V18.9345H51.9128V35H54.3915V29.0213H54.4489C55.1374 30.364 56.5144 31.2131 58.2472 31.2131C61.2767 31.2131 63.2849 28.7918 63.2849 24.9705ZM57.5472 29.1131C59.5095 29.1131 60.7373 27.5066 60.7373 24.9705C60.7373 22.446 59.5095 20.8279 57.5472 20.8279C55.6538 20.8279 54.38 22.4804 54.38 24.9705C54.38 27.4836 55.6423 29.1131 57.5472 29.1131ZM77.1214 24.9705C77.1214 21.1492 75.1018 18.7394 72.0378 18.7394C70.2936 18.7394 68.9051 19.623 68.1936 21.0115H68.1477V18.9345H65.7493V35H68.228V29.0213H68.2854C68.9739 30.364 70.351 31.2131 72.0837 31.2131C75.1132 31.2131 77.1214 28.7918 77.1214 24.9705ZM71.3837 29.1131C73.346 29.1131 74.5739 27.5066 74.5739 24.9705C74.5739 22.446 73.346 20.8279 71.3837 20.8279C69.4903 20.8279 68.2165 22.4804 68.2165 24.9705C68.2165 27.4836 69.4788 29.1131 71.3837 29.1131ZM87.0077 26.3935H84.4717C84.6323 29.3886 87.111 31.282 90.7831 31.282C94.7077 31.282 97.1749 29.3427 97.1749 26.2443C97.1749 23.823 95.7634 22.4574 92.3667 21.6542L90.5421 21.2066C88.4077 20.6788 87.5356 19.9902 87.5356 18.8198C87.5356 17.3509 88.9011 16.3411 90.8979 16.3411C92.8946 16.3411 94.2601 17.3394 94.4093 18.9919H96.9109C96.8306 16.1345 94.4323 14.1722 90.9323 14.1722C87.3979 14.1722 84.9077 16.1345 84.9077 18.9919C84.9077 21.2984 86.3192 22.7214 89.3602 23.4558L91.5061 23.9722C93.6519 24.5001 94.5585 25.2689 94.5585 26.5541C94.5585 28.0345 93.0552 29.1131 90.9667 29.1131C88.7864 29.1131 87.1913 28.0345 87.0077 26.3935ZM100.466 16.0771H102.956V18.9345H105.251V20.8968H102.956V27.5525C102.956 28.5968 103.415 29.0672 104.425 29.0672C104.677 29.0672 105.079 29.0443 105.239 29.0099V30.9722C104.964 31.041 104.413 31.0869 103.862 31.0869C101.418 31.0869 100.466 30.1574 100.466 27.8279V20.8968H98.7098V18.9345H100.466V16.0771ZM107.015 24.9705C107.015 28.8607 109.287 31.2361 112.741 31.2361C116.196 31.2361 118.468 28.8607 118.468 24.9705C118.468 21.0919 116.184 18.7165 112.741 18.7165C109.299 18.7165 107.015 21.0919 107.015 24.9705ZM112.741 29.1935C114.692 29.1935 115.943 27.6558 115.943 24.9705C115.943 22.2968 114.681 20.7591 112.741 20.7591C110.802 20.7591 109.54 22.2968 109.54 24.9705C109.54 27.6558 110.802 29.1935 112.741 29.1935ZM123.308 18.9345H120.944V31.0066H123.422V23.7771C123.422 22.0673 124.409 21.0001 126.004 21.0001C126.486 21.0001 126.922 21.0574 127.117 21.1378V18.8312C126.934 18.7968 126.624 18.7394 126.268 18.7394C124.845 18.7394 123.767 19.5771 123.365 20.9886H123.308V18.9345ZM137.213 27.4607H139.565C139.221 29.664 137.133 31.2361 134.367 31.2361C130.821 31.2361 128.675 28.8377 128.675 25.0279C128.675 21.2411 130.856 18.7165 134.264 18.7165C137.615 18.7165 139.703 21.0804 139.703 24.741V25.5902H131.177V25.7394C131.177 27.8394 132.439 29.2279 134.424 29.2279C135.836 29.2279 136.88 28.5164 137.213 27.4607ZM131.188 23.8574C131.315 22.0329 132.531 20.7132 134.264 20.7132C135.997 20.7132 137.167 22.0099 137.224 23.8574H131.188Z" fill="#585757"/>
</svg>
