<svg width="20" height="20" viewBox="0 0 20 20" fill="none" xmlns="http://www.w3.org/2000/svg">
<path fill-rule="evenodd" clip-rule="evenodd" d="M13.6667 0.833313C16.7042 0.833313 19.1667 3.29575 19.1667 6.33331V13.6666C19.1667 16.7042 16.7042 19.1666 13.6667 19.1666H6.33334C3.29578 19.1666 0.833344 16.7042 0.833344 13.6666V6.33331C0.833344 3.29575 3.29578 0.833313 6.33334 0.833313L13.6667 0.833313ZM12.75 3.58331H7.25001C5.28633 3.58331 3.68319 5.12695 3.58783 7.06698L3.58334 7.24998V12.75C3.58334 14.7137 5.12698 16.3168 7.06701 16.4122L7.25001 16.4166H12.75C14.7137 16.4166 16.3168 14.873 16.4122 12.933L16.4167 12.75V7.24998C16.4167 5.2863 14.873 3.68316 12.933 3.5878L12.75 3.58331Z" fill="white"/>
</svg>
