<svg width="128" height="42" viewBox="0 0 128 42" fill="none" xmlns="http://www.w3.org/2000/svg">
<path fill-rule="evenodd" clip-rule="evenodd" d="M31.5701 17.2906C31.5696 17.3209 31.5689 17.3585 31.5681 17.3824L31.5651 17.3824C31.5639 17.3507 31.5626 17.2838 31.5614 17.1621L31.5365 14.8575H29.2481H16.3812V19.5025H26.7871C26.4371 21.8968 25.4815 23.8175 24.0605 25.2081C22.2399 26.9897 19.5966 27.9606 16.4317 27.9944C16.2226 27.9967 16.2586 27.9957 16.331 27.9938H16.331H16.331C16.4344 27.9911 16.6118 27.9865 16.2533 27.9865C13.0321 27.9865 10.1332 26.686 8.04111 24.5839C5.9399 22.4726 4.6452 19.5469 4.6452 16.3102C4.6452 13.0747 5.93959 10.1523 8.03959 8.04349C10.1314 5.94318 13.0309 4.64483 16.2533 4.64483C17.7726 4.64483 19.2216 4.93366 20.5489 5.45927C21.9352 6.00801 23.1864 6.80814 24.244 7.80183L27.4192 4.42692C25.9267 3.02479 24.1776 1.90205 22.2545 1.14057C20.3949 0.404661 18.3701 -0.00012207 16.2533 -0.00012207C11.7557 -0.00012207 7.69598 1.82505 4.75568 4.77753C1.81355 7.73153 -6.10352e-05 11.8095 -6.10352e-05 16.3102C-6.10352e-05 20.8109 1.81385 24.8925 4.7569 27.8498C7.6969 30.8041 11.756 32.6314 16.2533 32.6314C16.4465 32.6314 16.4141 32.6309 16.3492 32.6298L16.3488 32.6298C16.3171 32.6292 16.2779 32.6286 16.2533 32.6278C16.2269 32.6269 16.2174 32.626 16.2533 32.6247C16.2847 32.6238 16.3498 32.6226 16.4682 32.6214C20.8627 32.5745 24.6192 31.142 27.3085 28.5106C29.9992 25.8771 31.5626 22.1034 31.5626 17.3824H31.5651C31.5663 17.418 31.5672 17.4086 31.5681 17.3824H31.5718C31.5718 17.1969 31.5712 17.2281 31.5701 17.2906ZM43.8055 15.862C45.4733 15.862 46.9817 16.558 48.0718 17.6832C49.1635 18.8102 49.8389 20.3752 49.8389 22.1112C49.8389 23.8472 49.1635 25.4124 48.0718 26.5391C46.9817 27.6643 45.4733 28.3603 43.8055 28.3603C42.1374 28.3603 40.629 27.6643 39.5388 26.5391C38.4471 25.4124 37.7718 23.8472 37.7718 22.1112C37.7718 20.3752 38.4471 18.8102 39.5388 17.6832C40.629 16.558 42.1374 15.862 43.8055 15.862ZM51.2614 14.7475C49.3516 12.8553 46.7154 11.6848 43.8055 11.6848C40.8956 11.6848 38.259 12.8553 36.3493 14.7475C34.441 16.6381 33.2607 19.2421 33.2607 22.1112C33.2607 24.9803 34.441 27.5843 36.3493 29.4749C38.259 31.3673 40.8956 32.5375 43.8055 32.5375C46.7154 32.5375 49.3516 31.3673 51.2614 29.4749C53.17 27.5843 54.3502 24.9803 54.3502 22.1112C54.3502 19.2421 53.17 16.6381 51.2614 14.7475ZM70.7509 17.6832C69.6608 16.558 68.1524 15.862 66.4846 15.862C64.8165 15.862 63.3081 16.558 62.2179 17.6832C61.1266 18.8102 60.4512 20.3752 60.4512 22.1112C60.4512 23.8472 61.1266 25.4124 62.2179 26.5391C63.3081 27.6643 64.8165 28.3603 66.4846 28.3603C68.1524 28.3603 69.6608 27.6643 70.7509 26.5391C71.8426 25.4124 72.518 23.8472 72.518 22.1112C72.518 20.3752 71.8426 18.8102 70.7509 17.6832ZM66.4846 11.6848C69.3945 11.6848 72.0307 12.8553 73.9408 14.7475C75.8491 16.6381 77.0293 19.2421 77.0293 22.1112C77.0293 24.9803 75.8491 27.5843 73.9408 29.4749C72.0307 31.3673 69.3945 32.5375 66.4846 32.5375C63.5747 32.5375 60.9385 31.3673 59.0284 29.4749C57.1201 27.5843 55.9396 24.9803 55.9396 22.1112C55.9396 19.2421 57.1201 16.6381 59.0284 14.7475C60.9385 12.8553 63.5747 11.6848 66.4846 11.6848ZM88.9833 15.862C90.572 15.862 92.0088 16.558 93.0472 17.6832C94.0872 18.8102 94.7303 20.3752 94.7303 22.1112C94.7303 23.8472 94.0872 25.4124 93.0472 26.5391C92.0088 27.6643 90.572 28.4751 88.9833 28.4751C85.6014 28.4751 83.2363 25.6194 83.2363 22.1112C83.2363 20.3752 83.8794 18.8102 84.9193 17.6832C85.9577 16.558 87.3943 15.862 88.9833 15.862ZM94.2938 14.0877C92.7465 12.5872 91.0248 11.6848 88.1859 11.6848C83.4317 11.6848 78.6455 16.3161 78.6455 22.1112C78.6455 24.9803 79.7134 27.5843 81.44 29.4749C83.1681 31.3673 85.9946 32.5375 88.6272 32.5375C90.9414 32.5375 92.7228 31.6333 94.2938 30.1295V32.4121C94.2938 35.794 91.517 37.8466 89.3034 37.8466C86.179 37.8466 84.5084 36.5704 83.3891 34.0937L79.4353 35.8756C80.3775 37.9607 81.7511 39.441 83.3611 40.432C85.1707 41.5459 87.2412 41.9434 89.3034 41.9434C91.5617 41.9434 93.8428 40.9905 95.5407 39.4806C97.3035 37.9132 98.6052 34.9084 98.6052 32.1379V12.2728H94.2938V14.0877ZM101.393 31.9401H105.844V1.34217H101.393V31.9401ZM123.349 25.5974C121.008 29.4976 114.833 29.4516 113.081 25.2766C115.778 24.1903 118.468 23.0911 121.158 21.9919C123.158 21.1745 125.158 20.3573 127.161 19.5454C125.607 15.5411 123.482 13.2372 120.863 12.2861C116.83 10.8216 112.921 12.1869 110.387 14.8722C107.281 18.164 106.321 25.1077 110.804 29.633C112.639 31.485 115.094 32.6281 118.144 32.6248C121.57 32.6059 124.715 31.1243 126.874 27.9603L123.349 25.5974ZM121.853 17.929L112.372 21.7474C112.233 19.7393 113.312 17.9625 114.544 16.9216C117.749 14.7355 120.18 15.7773 121.853 17.929Z" fill="#969696"/>
</svg>
