<svg width="141" height="34" viewBox="0 0 141 34" fill="none" xmlns="http://www.w3.org/2000/svg">
<path fill-rule="evenodd" clip-rule="evenodd" d="M37.2577 3.45382H33.7772V4.4866H36.2458C36.1237 5.93498 34.9188 6.55266 33.7815 6.55266C32.3263 6.55266 31.0565 5.40773 31.0565 3.80291C31.0565 2.23968 32.2669 1.03581 33.7845 1.03581C34.9557 1.03581 35.6456 1.78214 35.6456 1.78214L36.3687 1.03328C36.3687 1.03328 35.4405 0 33.7476 0C31.592 0 29.9245 1.81936 29.9245 3.78438C29.9245 5.71017 31.4931 7.58763 33.8025 7.58763C35.8339 7.58763 37.3208 6.19633 37.3208 4.13869C37.3208 3.70456 37.2577 3.45365 37.2577 3.45365V3.45382ZM37.9134 20.0995H45.5613C45.5667 20.1213 45.6996 20.6696 45.6996 21.6041C45.6996 26.1256 42.4323 29.1833 37.969 29.1833C32.894 29.1833 29.4471 25.0575 29.4471 20.8261C29.4471 16.5079 33.1116 12.51 37.8482 12.5102C41.5681 12.5102 43.6077 14.7807 43.6077 14.7807L42.0186 16.4263C42.0186 16.4263 40.5025 14.7859 37.9294 14.7859C34.5946 14.7859 31.9348 17.4314 31.9348 20.8666C31.9348 24.3926 34.725 26.9086 37.9225 26.9086C40.4217 26.9086 43.0694 25.5514 43.3375 22.369H37.9134V20.0995ZM46.6753 23.7709C46.6753 20.9093 48.9242 18.456 52.0626 18.456C54.6421 18.456 57.4395 20.2839 57.4395 23.8332C57.4395 26.9299 55.0347 29.1736 52.0992 29.1736C48.8565 29.1736 46.6753 26.6746 46.6753 23.7709ZM63.9061 18.456C60.7679 18.456 58.5188 20.9093 58.5188 23.7709C58.5188 26.6746 60.7002 29.1736 63.943 29.1736C66.8783 29.1736 69.2832 26.9299 69.2832 23.8332C69.2832 20.2839 66.486 18.456 63.9061 18.456ZM55.0993 23.8191C55.0993 21.8086 53.637 20.5608 52.0936 20.5608V20.5609C50.3596 20.5609 49.0269 21.9472 49.0269 23.8034C49.0269 25.7004 50.3763 27.0701 52.0865 27.0701C53.643 27.0701 55.0993 25.7868 55.0993 23.8191ZM63.9373 20.5608C65.4805 20.5608 66.943 21.8086 66.943 23.8191C66.943 25.7868 65.4867 27.0701 63.9301 27.0701C62.22 27.0701 60.8708 25.7004 60.8708 23.8034C60.8708 21.9472 62.2031 20.5609 63.9373 20.5609V20.5608ZM70.3621 23.816C70.3621 20.9844 72.6266 18.4617 75.5068 18.4617V18.4619C76.7609 18.4619 77.7056 18.947 78.3963 19.6915V18.7838H80.6431V28.4131C80.6431 32.1965 78.4603 34 75.5962 34C72.978 34 71.5072 32.3901 70.7764 30.8444L72.8361 29.9834C73.1213 30.674 73.9424 31.8917 75.5792 31.8917C77.2736 31.8917 78.3962 30.784 78.3962 28.9351V27.8784C77.7967 28.5743 76.9847 29.1807 75.4572 29.1807C72.9871 29.1807 70.3621 27.0417 70.3621 23.816ZM75.7153 20.5623C77.1276 20.5623 78.5779 21.7682 78.5779 23.8275C78.5779 25.9207 77.1307 27.0742 75.6842 27.0742C74.1487 27.0742 72.7197 25.8274 72.7197 23.8474C72.7197 21.79 74.2038 20.5623 75.7153 20.5623ZM86.1069 23.8005C86.1069 20.6106 88.3882 18.4487 91.1053 18.4487L91.1054 18.4491C93.2484 18.4491 94.8676 19.8781 95.5617 21.5892L95.9349 22.463L88.7492 25.4444C89.1785 26.2435 89.8712 27.0684 91.3776 27.0686C92.7187 27.0686 93.5224 26.3395 94.0032 25.5933L95.8556 26.826C95.025 27.9374 93.6336 29.1776 91.3663 29.1776C88.6497 29.1776 86.1069 27.1759 86.1069 23.8005ZM91.1991 20.5099C92.1781 20.5099 92.8827 21.0302 93.1819 21.6545L88.3833 23.6601C88.1765 22.1073 89.6476 20.5099 91.1989 20.5099H91.1991ZM84.8052 28.8595H82.4449V13.0644H84.8052V28.8595ZM114.09 28.8595H116.45V13.0644H114.09V28.8595ZM103.934 28.8595H101.573V23.1278V13.0644V13.0642H107.283C110.05 13.0642 112.315 15.3285 112.315 18.0961C112.315 20.8635 110.05 23.1278 107.283 23.1278H103.934V28.8595ZM103.934 20.7675V15.4245H107.283C108.748 15.4245 109.955 16.6312 109.955 18.0961C109.955 19.5608 108.748 20.7675 107.283 20.7675H103.934ZM133.876 34L140.71 18.4491H138.132L135.04 25.4862L131.947 18.4491H129.369L133.751 28.4194L131.298 34H133.876ZM126.11 28.8595H128.47V23.1786C128.839 17.3196 121.411 15.9416 118.6 20.1654L120.5 21.4398C121.874 19.0371 125.796 19.5899 126.054 22.1649C124.875 21.8527 123.602 21.6264 122.438 21.7441C120.623 21.9278 119.068 23.081 118.821 24.9697C118.687 25.9904 118.915 27.2485 119.628 28.0152C120.738 29.2098 122.561 29.3708 124.059 28.9626C124.902 28.7327 125.566 28.2317 126.11 27.5846V28.8595ZM123.498 26.9038C124.79 26.552 125.808 25.6071 126.11 24.2936C125.449 24.0797 124.842 23.9071 124.145 23.8231C120.09 23.2133 120.769 27.6477 123.498 26.9038ZM52.5574 7.44045H51.4833V0.252259H52.5574V7.44045ZM45.468 7.44045H46.5422V1.32629H48.3053V0.252259H43.7049V1.32629H45.468V7.44045ZM42.5724 7.44045H38.4531V0.252259H42.5724V1.32629H39.5273V3.30934H42.2058V4.38337H39.5273V6.36624H42.5724V7.44045ZM56.269 7.44045V1.32629H58.0321V0.252259H53.4319V1.32629H55.195V7.44045H56.269ZM60.7958 3.78438C60.7958 1.81919 62.4635 0 64.6191 0C66.7748 0 68.4424 1.81919 68.4424 3.78438C68.4424 5.69468 66.8986 7.55748 64.6191 7.58695C62.3397 7.55748 60.7958 5.69468 60.7958 3.78438ZM64.6191 6.55215C63.1782 6.53447 61.928 5.39527 61.928 3.80291C61.928 2.25248 63.1189 1.05551 64.6191 1.03615C66.1195 1.05551 67.3103 2.25248 67.3103 3.80291C67.3103 5.39527 66.0601 6.53447 64.6191 6.55215ZM70.5895 7.44045H69.5153V0.252259H70.5895L74.0374 5.48553V0.252259H75.1116V7.44045H74.0392L70.5895 2.20448V7.44045ZM0.595822 8.96595L12.7318 21.0838L0.654087 33.3079C0.301632 33.0839 0.112691 32.5989 0.109492 31.9725L3.36798e-05 10.2766C-0.00333426 9.59054 0.24623 9.17207 0.595822 8.96595ZM1.97634 8.98229L16.7338 17.0335L13.2338 20.5756L1.46138 8.82046C1.63971 8.84387 1.81872 8.89624 1.97634 8.98229ZM17.39 24.7255L13.7394 21.0803L17.3863 17.3895L22.4086 20.1292C23.6458 20.8037 23.013 21.6478 22.4086 21.9785L17.39 24.7255ZM1.97634 33.1614C1.86486 33.2237 1.75742 33.2725 1.65453 33.3113L13.2374 21.5885L16.7368 25.0827L1.97634 33.1614Z" fill="#585757"/>
</svg>
